<svg xmlns="http://www.w3.org/2000/svg" xmlns:xlink="http://www.w3.org/1999/xlink" viewBox="0 0 401.31 405.11"><defs><style>.cls-1{isolation:isolate;}.cls-2,.cls-20,.cls-25{mix-blend-mode:multiply;}.cls-2{opacity:0.49;}.cls-3{fill:#d48114;}.cls-4{fill:#f7941e;}.cls-5{fill:#c21f1f;}.cls-6{fill:#f63339;}.cls-7{fill:#fbd661;}.cls-8{fill:#fbfbd8;}.cls-9{fill:#862f0a;}.cls-10{fill:#8f3e1c;}.cls-11{fill:#011f25;}.cls-12{fill:#103b54;}.cls-13{fill:#004360;}.cls-14{fill:#175779;}.cls-15{fill:#7299ad;}.cls-16{fill:#eeeee9;}.cls-17{fill:#d6d7d9;}.cls-18{fill:#f3f3f3;}.cls-19{fill:#fff;}.cls-20{fill:url(#linear-gradient);}.cls-21{fill:#12b9cb;}.cls-22{fill:#e95400;}.cls-23{fill:#ff8312;}.cls-24{fill:#ffcfa2;}.cls-25{fill:url(#linear-gradient-2);}.cls-26{fill:#2eabe8;}.cls-27{fill:#30d3f4;}</style><linearGradient id="linear-gradient" x1="-99.95" y1="-1353.84" x2="-190.37" y2="-1411.91" gradientTransform="matrix(0.52, -0.76, 0.74, 0.63, 1259.07, 886.86)" gradientUnits="userSpaceOnUse"><stop offset="0" stop-color="#fff"/><stop offset="0.28" stop-color="#fff"/><stop offset="0.43" stop-color="#fbfbfb"/><stop offset="0.57" stop-color="#f0f0f0"/><stop offset="0.7" stop-color="#ddd"/><stop offset="0.83" stop-color="#c3c3c3"/><stop offset="0.96" stop-color="#a1a1a1"/><stop offset="1" stop-color="#949494"/></linearGradient><linearGradient id="linear-gradient-2" x1="310.61" y1="264.16" x2="265.96" y2="215.22" gradientTransform="matrix(-0.21, -0.77, 0.78, 0.25, 144.23, 414.24)" gradientUnits="userSpaceOnUse"><stop offset="0" stop-color="#fff"/><stop offset="0.21" stop-color="#fff"/><stop offset="0.8" stop-color="#afafaf"/><stop offset="1" stop-color="#949494"/></linearGradient></defs><g class="cls-1"><g id="Layer_1" data-name="Layer 1"><g class="cls-2"><path d="M185.7,96.77C134.94,54,90.4,44,83.89,42.14h0L83.43,42l-.19,0-.11,0c-.07,0,20.64,21.69,20.64,21.69S83,42,83,42l0,.12s0,.12.06.19l.12.45h0C85.1,49.29,98,91.4,137.74,144.66c29.51,36.42,85.85,95.36,156.14,137.6C294,281,309.43,201.11,185.7,96.77Z"/></g><path class="cls-3" d="M302.43,270.46l-34.12,34.07s-1.13,37.83,85.45,51.47h0C340.24,269.4,302.43,270.46,302.43,270.46Z"/><path class="cls-4" d="M285.36,287.51l-17.05,17s-1.13,37.83,85.45,51.47Z"/><path class="cls-5" d="M302.09,280.65,278.5,304.21s-1.58,28.55,62.07,38.58h0C330.63,279.13,302.09,280.65,302.09,280.65Z"/><path class="cls-6" d="M278.5,304.21s-1.58,28.55,62.07,38.58l-50.28-50.36Z"/><path class="cls-7" d="M300.86,289.27,287.11,303s-2.22,20.56,41.07,27.38h0C321.42,287.08,300.86,289.27,300.86,289.27Z"/><path class="cls-8" d="M287.11,303s-2.22,20.56,41.07,27.38L294,296.13Z"/><polygon class="cls-9" points="316.54 267.33 265.14 318.65 238.57 299.91 297.84 240.73 316.54 267.33"/><polygon class="cls-10" points="238.57 299.91 265.14 318.65 290.84 292.99 268.21 270.32 238.57 299.91"/><polygon class="cls-11" points="241.06 148.2 378.47 197.34 399.04 230.05 286.41 234.82 241.06 148.2"/><path class="cls-12" d="M378.47,197.34,279.58,162c12.78,14,36.3,54.64,42.78,71.32L399,230.05Z"/><polygon class="cls-13" points="146.13 243.01 195.07 380.49 227.75 401.09 232.68 288.48 146.13 243.01"/><polygon class="cls-14" points="146.13 243.01 195.07 380.49 218.26 395.11 198.36 275.11 146.13 243.01"/><polygon class="cls-15" points="163.34 275.18 196.71 379.93 198.5 381.07 169.72 278.99 163.34 275.18"/><path class="cls-16" d="M2.35,4.09s-11.4,221,244,311.77c7.62-18.6,48.81-59.73,67.41-67.32C223.39-7,2.35,4.09,2.35,4.09Z"/><path class="cls-17" d="M154.68,45.87A199.77,199.77,0,0,0,43.92,156.48C76.57,205,144.62,279,246.36,315.86c7.62-18.6,48.81-59.73,67.41-67.32C275.35,139.9,213.31,79.47,154.68,45.87Z"/><path class="cls-18" d="M43.92,156.48c33.51,58.68,93.86,120.8,202.44,159.38,3.81-9.3,16-24.23,29.59-37.79L88,89.88A195.91,195.91,0,0,0,43.92,156.48Z"/><path class="cls-19" d="M48,146.58S106.83,252.17,246.6,309.76c1.2-2,1.92-3.05,3.53-5.41a63.3,63.3,0,0,1,4.75-6s-126-42-201.28-162.81C50.53,141.32,48,146.58,48,146.58Z"/><polygon class="cls-20" points="217.78 152.19 147.47 177.73 118.31 99.36 188.29 72.91 217.78 152.19"/><path class="cls-16" d="M2.34,4.28V4.09S2.35,4.16,2.34,4.28Z"/><path class="cls-16" d="M2.35,4.09h0Z"/><path class="cls-16" d="M3.76,4.05h0Z"/><path class="cls-16" d="M2.73,4.08h0Z"/><path class="cls-16" d="M2.32,4.78c0-.12,0-.23,0-.31C2.33,4.56,2.33,4.65,2.32,4.78Z"/><path class="cls-16" d="M2.3,5.52h0Z"/><path class="cls-21" d="M2.33,4.47a1.34,1.34,0,0,0,0-.19A1.42,1.42,0,0,1,2.33,4.47Z"/><path class="cls-21" d="M2.3,5.51c0-.29,0-.53,0-.73C2.32,5,2.31,5.22,2.3,5.51Z"/><path class="cls-21" d="M3,4.07l.72,0Z"/><path class="cls-21" d="M2.53,4.08h0Z"/><path class="cls-12" d="M154.68,45.87C81.87,4.15,14.31,3.82,3.77,4.05h0L3,4.07H2.35v.19a1.34,1.34,0,0,1,0,.19c0,.08,0,.19,0,.31s0,.44,0,.73h0c-.24,10.53,0,78.09,41.62,151A199.77,199.77,0,0,1,154.68,45.87Z"/><path class="cls-22" d="M140.67,38.31C67,.87,2.35,4.09,2.35,4.09S-1,68.74,36.37,142.46A173.37,173.37,0,0,1,140.67,38.31Z"/><path class="cls-23" d="M36.37,142.46A169.55,169.55,0,0,1,76.9,78.75L2.35,4.09S-1,68.74,36.37,142.46Z"/><path class="cls-24" d="M4.27,11.37S5,71,39.18,134.47a89.78,89.78,0,0,1,5.14-11.24S12.13,67,4.27,11.37Z"/><polygon class="cls-25" points="326.87 296.03 305.23 306.95 211.5 213.09 257.35 200.06 326.87 296.03"/><polygon class="cls-13" points="246.9 216.48 211.5 213.09 211.5 213.09 214.86 248.48 298.73 310.35 305.23 306.95 308.65 300.44 246.9 216.48"/><polygon class="cls-14" points="214.86 248.48 298.73 310.35 305.23 306.95 211.5 213.09 214.86 248.48"/><polygon class="cls-15" points="217.43 247.26 213.87 220.32 221.77 244.93 298.43 307.7 298.43 307.7 217.43 247.26"/><path class="cls-22" d="M165.26,107.93a41.9,41.9,0,1,1-59.26-.05A41.89,41.89,0,0,1,165.26,107.93Z"/><path class="cls-23" d="M106,167.14a41.88,41.88,0,0,0,59.25,0L106,107.88A41.89,41.89,0,0,0,106,167.14Z"/><path class="cls-26" d="M157.3,115.87a30.66,30.66,0,1,1-43.36,0A30.67,30.67,0,0,1,157.3,115.87Z"/><path class="cls-27" d="M113.91,159.2a30.67,30.67,0,0,0,43.36,0l-43.33-43.39A30.67,30.67,0,0,0,113.91,159.2Z"/></g></g></svg>