<svg xmlns="http://www.w3.org/2000/svg" xmlns:xlink="http://www.w3.org/1999/xlink" viewBox="0 0 260.7 500"><defs><style>.cls-1{isolation:isolate;}.cls-2,.cls-20,.cls-25{mix-blend-mode:multiply;}.cls-2{opacity:0.49;}.cls-3{fill:#d48114;}.cls-4{fill:#f7941e;}.cls-5{fill:#c21f1f;}.cls-6{fill:#f63339;}.cls-7{fill:#fbd661;}.cls-8{fill:#fbfbd8;}.cls-9{fill:#862f0a;}.cls-10{fill:#8f3e1c;}.cls-11{fill:#011f25;}.cls-12{fill:#103b54;}.cls-13{fill:#004360;}.cls-14{fill:#175779;}.cls-15{fill:#7299ad;}.cls-16{fill:#eeeee9;}.cls-17{fill:#d6d7d9;}.cls-18{fill:#f3f3f3;}.cls-19{fill:#fff;}.cls-20{fill:url(#linear-gradient);}.cls-21{fill:#12b9cb;}.cls-22{fill:#e95400;}.cls-23{fill:#ff8312;}.cls-24{fill:#ffcfa2;}.cls-25{fill:url(#linear-gradient-2);}.cls-26{fill:#2eabe8;}.cls-27{fill:#30d3f4;}</style><linearGradient id="linear-gradient" x1="-227.77" y1="-1244.95" x2="-318.18" y2="-1303.02" gradientTransform="matrix(0.9, -0.17, 0.07, 0.97, 502.99, 1387.11)" gradientUnits="userSpaceOnUse"><stop offset="0" stop-color="#fff"/><stop offset="0.28" stop-color="#fff"/><stop offset="0.43" stop-color="#fbfbfb"/><stop offset="0.57" stop-color="#f0f0f0"/><stop offset="0.7" stop-color="#ddd"/><stop offset="0.83" stop-color="#c3c3c3"/><stop offset="0.96" stop-color="#a1a1a1"/><stop offset="1" stop-color="#949494"/></linearGradient><linearGradient id="linear-gradient-2" x1="120.87" y1="349.16" x2="76.22" y2="300.22" gradientTransform="matrix(0.4, -0.69, 0.37, 0.73, -15, 199.49)" gradientUnits="userSpaceOnUse"><stop offset="0" stop-color="#fff"/><stop offset="0.21" stop-color="#fff"/><stop offset="0.8" stop-color="#afafaf"/><stop offset="1" stop-color="#949494"/></linearGradient></defs><g class="cls-1"><g id="Layer_1" data-name="Layer 1"><g class="cls-2"><path d="M195.5,196.52c-5.62-66.15-30.07-104.7-33.36-110.62h0l-.23-.41-.1-.17a.6.6,0,0,1-.06-.11s-.74,29.94-.74,29.94.65-30,.62-29.94l-.06.11-.1.17-.23.41h0c-3.3,5.92-23.93,44.84-33.52,110.57-4.88,46.62-6.72,128.14,13.12,207.71C141.8,403.42,209.21,357.8,195.5,196.52Z"/></g><path class="cls-3" d="M155.22,401.88l-48.22,0s-27.54,25.95,24,96.81h0C182.7,427.87,155.22,401.88,155.22,401.88Z"/><path class="cls-4" d="M131.1,401.87l-24.1,0s-27.54,25.95,24,96.81Z"/><path class="cls-5" d="M147.77,408.85l-33.34,0S93.13,427.9,131.05,480h0C169,428,147.77,408.85,147.77,408.85Z"/><path class="cls-6" d="M114.43,408.82S93.13,427.9,131.05,480l0-71.16Z"/><path class="cls-7" d="M140.81,414.07H121.38s-16.1,13,9.68,48.4h0C156.9,427.07,140.81,414.07,140.81,414.07Z"/><path class="cls-8" d="M121.38,414.06s-16.1,13,9.68,48.4l0-48.4Z"/><polygon class="cls-9" points="167.42 409.64 94.78 409.59 89.24 377.56 173 377.61 167.42 409.64"/><polygon class="cls-10" points="89.24 377.56 94.78 409.59 131.1 409.62 131.12 377.58 89.24 377.56"/><polygon class="cls-11" points="198.28 272.04 260.69 403.95 252.11 441.62 169.1 365.35 198.28 272.04"/><path class="cls-12" d="M260.7,404,215.78,309c-.84,18.91-13,64.3-20.19,80.67l56.52,51.93Z"/><polygon class="cls-13" points="64.11 271.94 1.51 403.77 10.05 441.45 93.16 365.3 64.11 271.94"/><polygon class="cls-14" points="64.11 271.94 1.51 403.77 7.57 430.5 78.35 331.58 64.11 271.94"/><polygon class="cls-15" points="53.53 306.86 3.06 404.53 3.52 406.61 55.35 314.07 53.53 306.86"/><path class="cls-16" d="M131.39,1.34S-33,149.56,83.48,394.34c18.53-7.76,76.74-7.72,95.26.06C295.53,149.79,131.39,1.34,131.39,1.34Z"/><path class="cls-17" d="M209.55,138.6a196.05,196.05,0,0,0-78.25-16A196,196,0,0,0,53,138.49C41.79,195.91,37.61,296.31,83.48,394.34c18.53-7.76,76.74-7.72,95.26.06C228.39,290.41,227.25,203.81,209.55,138.6Z"/><path class="cls-18" d="M53,138.49C35.23,203.68,34,290.28,83.48,394.34c9.26-3.88,28.45-5.81,47.63-5.8l.19-266A196,196,0,0,0,53,138.49Z"/><path class="cls-19" d="M62.92,134.39S29.84,250.64,88,390.19c2.26-.57,3.51-.79,6.32-1.32a63.75,63.75,0,0,1,7.61-.9S42.45,269.16,74.69,130.52C68.42,132.45,62.92,134.39,62.92,134.39Z"/><polygon class="cls-20" points="179 258.4 111.22 226.74 146.02 150.7 214.21 181.49 179 258.4"/><path class="cls-16" d="M131.25,1.47l.14-.13Z"/><path class="cls-16" d="M131.39,1.34l.13.13Z"/><path class="cls-16" d="M132.42,2.31h0Z"/><path class="cls-16" d="M131.66,1.6l.23.21Z"/><path class="cls-16" d="M130.88,1.81l.23-.21Z"/><path class="cls-16" d="M130.35,2.32h0Z"/><path class="cls-21" d="M131.11,1.6l.14-.13Z"/><path class="cls-21" d="M130.35,2.31l.53-.5Z"/><path class="cls-21" d="M131.89,1.81l.53.5Z"/><path class="cls-21" d="M131.52,1.47l.14.13Z"/><path class="cls-12" d="M209.55,138.6c-22-81-69.51-129-77.13-136.28h0l-.53-.5-.23-.21-.14-.13-.13-.13-.14.13-.14.13-.23.21-.53.5h0C122.72,9.6,75.12,57.53,53,138.49a196,196,0,0,1,78.27-15.92A196.05,196.05,0,0,1,209.55,138.6Z"/><path class="cls-22" d="M205,123.34c-25.61-78.56-73.6-122-73.6-122S83.33,44.71,57.61,123.24a169.57,169.57,0,0,1,73.7-16.39A169.6,169.6,0,0,1,205,123.34Z"/><path class="cls-23" d="M57.61,123.24a169.57,169.57,0,0,1,73.7-16.39l.08-105.51S83.33,44.71,57.61,123.24Z"/><path class="cls-24" d="M127.6,7.85S86,50.48,65.24,119.58a89.57,89.57,0,0,1,11.58-4.32S93.85,52.71,127.6,7.85Z"/><polygon class="cls-25" points="154.42 437.25 131.4 429.66 131.5 297.02 173.13 320.22 154.42 437.25"/><polygon class="cls-13" points="154.13 324.45 131.5 297.02 131.5 297.02 108.84 324.42 124.4 427.47 131.4 429.66 138.42 427.48 154.13 324.45"/><polygon class="cls-14" points="108.84 324.42 124.4 427.47 131.4 429.66 131.5 297.02 108.84 324.42"/><polygon class="cls-15" points="111.52 325.37 128.05 303.81 116.24 326.79 126.06 425.38 126.06 425.38 111.52 325.37"/><path class="cls-22" d="M173.16,190A41.91,41.91,0,1,1,131.28,148,41.91,41.91,0,0,1,173.16,190Z"/><path class="cls-23" d="M89.35,189.9a41.91,41.91,0,0,0,41.87,41.93l.06-83.81A41.92,41.92,0,0,0,89.35,189.9Z"/><path class="cls-26" d="M161.91,190a30.66,30.66,0,1,1-30.63-30.68A30.65,30.65,0,0,1,161.91,190Z"/><path class="cls-27" d="M100.6,189.9a30.64,30.64,0,0,0,30.63,30.68l0-61.31A30.65,30.65,0,0,0,100.6,189.9Z"/></g></g></svg>