<svg id="Layer_1" data-name="Layer 1" xmlns="http://www.w3.org/2000/svg" viewBox="0 0 100 100"><defs><style>.cls-1{fill:#faaa51;}.cls-2{fill:#ee9839;}.cls-3{fill:#556262;}.cls-4{fill:#e0e0e0;}.cls-5{fill:#f15a59;}.cls-6{fill:#e3514f;}</style></defs><path class="cls-1" d="M19.15,31.28A30.85,30.85,0,0,0,50,62.11V.45A30.85,30.85,0,0,0,19.15,31.28Z"/><path class="cls-2" d="M50,.45V62.11A30.83,30.83,0,1,0,50,.45Z"/><path class="cls-3" d="M51,32.24h5.72A31.71,31.71,0,0,0,68.51,56c.53-.39,1-.8,1.54-1.23A29.84,29.84,0,0,1,58.63,32.24H80.9c0-.32,0-.64,0-1s0-.64,0-1H58.63A29.84,29.84,0,0,1,70.05,7.81c-.5-.42-1-.84-1.54-1.23a31.73,31.73,0,0,0-11.8,23.74H51V.47l-1,0-1,0V30.32H43.35A31.74,31.74,0,0,0,31.54,6.58C31,7,30.5,7.39,30,7.81A29.8,29.8,0,0,1,41.42,30.32H19.16c0,.32,0,.64,0,1s0,.64,0,1H41.42A29.8,29.8,0,0,1,30,54.75c.5.43,1,.84,1.54,1.23A31.72,31.72,0,0,0,43.35,32.24h5.72V62.09l1,0,1,0Z"/><path class="cls-4" d="M45.7,79.59,50,72.4V66L44,46.31H50V44.17H9.56a1.27,1.27,0,0,0-1.05.52,1,1,0,0,0,0,1.06l15.27,24.8,8,18.93a1.28,1.28,0,0,0,.11.2l3.26,9.12a1.21,1.21,0,0,0,1.17.75h0a1.21,1.21,0,0,0,1.16-.8l2.08-7L44.27,99a1.26,1.26,0,0,0,1.07.54h0a1.27,1.27,0,0,0,1.06-.61L50,91.33V86.8ZM23.65,65.85l-12-19.54h12ZM48.71,70l-4.5,7.5-5.48-7.61L42,48.3ZM39.87,46.31,36.85,66,27.78,46.31ZM31.62,83.07,29,76.85,31.62,80ZM26.1,69.76V48.39l10,21.7-3.56,7.37Zm10,24.82-2.05-5.76V83.63l3.66,5.57ZM39,86.81l-4.78-7.27,3.44-7.13,5.25,7.28Zm6.24,9.38L40.51,89l3.9-7.09,4.1,7.21Z"/><path class="cls-4" d="M91.54,44.69a1.27,1.27,0,0,0-1.05-.52H50v2.14h6L50,66V72.4l4.32,7.19L50,86.8v4.53l3.58,7.61a1.27,1.27,0,0,0,1.06.61h0A1.26,1.26,0,0,0,55.78,99l4.77-7.23,2.08,7a1.21,1.21,0,0,0,1.16.8h0A1.22,1.22,0,0,0,65,98.8l3.25-9.12a.82.82,0,0,0,.12-.2l8-18.93,15.26-24.8A.93.93,0,0,0,91.54,44.69ZM72.27,46.31,63.2,66l-3-19.64ZM51.34,70,58,48.3l3.32,21.56-5.48,7.61Zm3.47,26.22-3.27-7.06,4.11-7.21L59.55,89Zm2.34-16.5,5.24-7.28,3.45,7.13-4.78,7.27ZM66,88.82l-2.06,5.76-1.6-5.38L66,83.63Zm2.46-5.75V80l2.61-3.11ZM74,69.76l-6.46,7.7-3.56-7.37,10-21.7Zm2.45-3.91V46.31h12Z"/><rect class="cls-5" x="5.67" y="42.6" width="44.36" height="4.13"/><rect class="cls-6" x="50.03" y="42.6" width="44.36" height="4.13"/></svg>