<svg id="Layer_1" data-name="Layer 1" xmlns="http://www.w3.org/2000/svg" viewBox="0 0 100 100"><defs><style>.cls-1{fill:#3c4351;}.cls-2{fill:#252c3d;}.cls-3{fill:#f1f0f0;}.cls-4{fill:#fff;}</style></defs><rect class="cls-1" x="2.77" y="42.88" width="95.46" height="56.57"/><polygon class="cls-2" points="13.97 13.59 30.12 25.39 44.1 23.22 27.95 11.42 13.97 13.59"/><polygon class="cls-3" points="27.95 11.42 44.1 23.22 58.07 21.05 41.92 9.24 27.95 11.42"/><polygon class="cls-2" points="2.17 29.74 16.15 27.57 0 15.77 2.17 29.74"/><polygon class="cls-3" points="0 15.77 16.15 27.57 30.12 25.39 13.97 13.59 0 15.77"/><polygon class="cls-3" points="55.9 7.07 72.05 18.87 86.02 16.7 69.87 4.9 55.9 7.07"/><polygon class="cls-3" points="83.85 2.72 99.99 14.53 97.82 0.55 83.85 2.72"/><polygon class="cls-2" points="69.87 4.9 86.02 16.7 99.99 14.53 83.85 2.72 69.87 4.9"/><polygon class="cls-2" points="41.92 9.24 58.07 21.05 72.05 18.87 55.9 7.07 41.92 9.24"/><polygon class="cls-2" points="15.14 42.88 29.29 28.74 43.43 28.74 29.29 42.88 15.14 42.88"/><polygon class="cls-3" points="29.29 42.88 43.43 28.74 57.57 28.74 43.43 42.88 29.29 42.88"/><polygon class="cls-2" points="1 28.74 15.14 28.74 1 42.88 1 28.74"/><polygon class="cls-3" points="1 42.88 15.14 28.74 29.29 28.74 15.14 42.88 1 42.88"/><polygon class="cls-3" points="57.57 42.88 71.72 28.74 85.86 28.74 71.72 42.88 57.57 42.88"/><polygon class="cls-3" points="85.86 42.88 100 28.74 100 42.88 85.86 42.88"/><polygon class="cls-2" points="71.72 42.88 85.86 28.74 100 28.74 85.86 42.88 71.72 42.88"/><polygon class="cls-2" points="43.43 42.88 57.57 28.74 71.72 28.74 57.57 42.88 43.43 42.88"/><polygon class="cls-1" points="15.14 18.13 4.54 18.13 4.54 39.34 25.75 39.34 25.75 28.74 15.14 18.13"/><circle class="cls-4" cx="22.22" cy="35.81" r="1.77"/><circle class="cls-4" cx="8.07" cy="35.81" r="1.77"/><circle class="cls-4" cx="8.07" cy="21.67" r="1.77"/><rect class="cls-4" x="7.19" y="56.24" width="84.85" height="1.77"/><rect class="cls-4" x="7.19" y="63.31" width="84.85" height="1.77"/><rect class="cls-4" x="7.19" y="84.52" width="84.85" height="1.77"/><rect class="cls-4" x="27.06" y="64.19" width="1.77" height="21.21"/><rect class="cls-4" x="70.07" y="64.19" width="1.77" height="21.21"/><rect class="cls-4" x="7.19" y="49.16" width="14.14" height="3.54"/></svg>