<svg id="Layer_1" data-name="Layer 1" xmlns="http://www.w3.org/2000/svg" xmlns:xlink="http://www.w3.org/1999/xlink" viewBox="0 0 100 100"><defs><style>.cls-1{fill:#566970;}.cls-2{fill:#31545c;}.cls-3{fill:#132f35;}.cls-4{fill:url(#New_Gradient_Swatch_1);}</style><linearGradient id="New_Gradient_Swatch_1" x1="13.3" y1="81.66" x2="86.7" y2="81.66" gradientUnits="userSpaceOnUse"><stop offset="0" stop-color="#cf4841"/><stop offset="0.34" stop-color="#eab542"/><stop offset="0.68" stop-color="#48bd9f"/><stop offset="1" stop-color="#566970"/></linearGradient></defs><polygon class="cls-1" points="22.93 61.59 30.35 58.96 69.71 58.96 77.12 61.59 22.93 61.59"/><rect class="cls-2" x="22.93" y="61.59" width="54.19" height="1.78"/><rect class="cls-1" x="46.01" y="46.23" width="8.03" height="13.43"/><rect class="cls-2" x="46.01" y="46.23" width="8.03" height="8.57"/><rect class="cls-2" x="8.04" y="1.9" width="83.98" height="48.44"/><path class="cls-3" d="M90.42,3.49V48.75H9.63V3.49H90.42M93.61.31H6.44V51.94H93.61V.31Z"/><rect class="cls-2" x="18.44" y="0.31" width="12.3" height="51.63"/><rect class="cls-1" x="18.44" y="3.49" width="12.3" height="45.25"/><rect class="cls-2" x="33.27" y="0.31" width="5.3" height="51.63"/><rect class="cls-1" x="33.27" y="3.49" width="5.3" height="45.25"/><path class="cls-3" d="M86.54,68.33a2.14,2.14,0,0,0-1.44-.55H14.9a2.14,2.14,0,0,0-1.44.55l-1.1,1A2.27,2.27,0,0,0,11.61,71V93.32a2.34,2.34,0,0,0,.22,1L14,98.69a3.18,3.18,0,0,0,2.86,1.79H83.19a3.18,3.18,0,0,0,2.86-1.79l2.12-4.39a2.34,2.34,0,0,0,.22-1V71a2.27,2.27,0,0,0-.75-1.69Z"/><rect class="cls-2" x="11.61" y="69.98" width="76.78" height="23.86" rx="1.13"/><rect class="cls-1" x="13.3" y="70.76" width="3.7" height="3.7" rx="0.7"/><rect class="cls-1" x="19.56" y="70.76" width="13.69" height="3.7" rx="0.7"/><rect class="cls-1" x="34.04" y="70.76" width="13.69" height="3.7" rx="0.7"/><rect class="cls-1" x="48.53" y="70.76" width="13.69" height="3.7" rx="0.7"/><rect class="cls-1" x="13.3" y="75.54" width="48.91" height="17.01" rx="0.7"/><rect class="cls-1" x="62.4" y="70.76" width="10.36" height="3.7" rx="0.7"/><rect class="cls-1" x="62.4" y="75.54" width="10.36" height="7.03" rx="0.7"/><path class="cls-1" d="M72.06,88.86H69.43V86.23a.7.7,0,0,0-.7-.7H66.42a.69.69,0,0,0-.69.7v2.63H63.09a.69.69,0,0,0-.69.7v2.3a.69.69,0,0,0,.69.7h9a.7.7,0,0,0,.7-.7v-2.3A.7.7,0,0,0,72.06,88.86Z"/><path class="cls-1" d="M86,75.54H73.71a.7.7,0,0,0-.7.7V91.86a.69.69,0,0,0,.42.64.64.64,0,0,0,.28.06H86a.7.7,0,0,0,.7-.7V76.24A.71.71,0,0,0,86,75.54Z"/><path class="cls-1" d="M86,70.76H73.71a.7.7,0,0,0-.7.7v2.29a.69.69,0,0,0,.42.63.64.64,0,0,0,.28.06H86a.7.7,0,0,0,.7-.69V71.46A.71.71,0,0,0,86,70.76Z"/><rect class="cls-4" x="13.3" y="70.76" width="3.7" height="3.7" rx="0.7"/><rect class="cls-4" x="19.56" y="70.76" width="13.69" height="3.7" rx="0.7"/><rect class="cls-4" x="34.04" y="70.76" width="13.69" height="3.7" rx="0.7"/><rect class="cls-4" x="48.53" y="70.76" width="13.69" height="3.7" rx="0.7"/><rect class="cls-4" x="13.3" y="75.54" width="48.91" height="17.01" rx="0.7"/><rect class="cls-4" x="62.4" y="70.76" width="10.36" height="3.7" rx="0.7"/><rect class="cls-4" x="62.4" y="75.54" width="10.36" height="7.03" rx="0.7"/><path class="cls-4" d="M72.06,88.86H69.43V86.23a.7.7,0,0,0-.7-.7H66.42a.69.69,0,0,0-.69.7v2.63H63.09a.69.69,0,0,0-.69.7v2.3a.69.69,0,0,0,.69.7h9a.7.7,0,0,0,.7-.7v-2.3A.7.7,0,0,0,72.06,88.86Z"/><path class="cls-4" d="M86,75.54H73.71a.7.7,0,0,0-.7.7V91.86a.69.69,0,0,0,.42.64.64.64,0,0,0,.28.06H86a.7.7,0,0,0,.7-.7V76.24A.71.71,0,0,0,86,75.54Z"/><path class="cls-4" d="M86,70.76H73.71a.7.7,0,0,0-.7.7v2.29a.69.69,0,0,0,.42.63.64.64,0,0,0,.28.06H86a.7.7,0,0,0,.7-.69V71.46A.71.71,0,0,0,86,70.76Z"/><rect class="cls-3" x="13.67" y="71.13" width="2.96" height="2.96" rx="0.33"/><rect class="cls-3" x="19.93" y="71.13" width="2.96" height="2.96" rx="0.33"/><rect class="cls-3" x="23.25" y="71.13" width="2.96" height="2.96" rx="0.33"/><rect class="cls-3" x="26.58" y="71.13" width="2.96" height="2.96" rx="0.33"/><rect class="cls-3" x="29.91" y="71.13" width="2.96" height="2.96" rx="0.33"/><rect class="cls-3" x="34.41" y="71.13" width="2.96" height="2.96" rx="0.33"/><rect class="cls-3" x="37.74" y="71.13" width="2.96" height="2.96" rx="0.33"/><rect class="cls-3" x="41.07" y="71.13" width="2.96" height="2.96" rx="0.33"/><rect class="cls-3" x="44.4" y="71.13" width="2.96" height="2.96" rx="0.33"/><rect class="cls-3" x="48.9" y="71.13" width="2.96" height="2.96" rx="0.33"/><rect class="cls-3" x="52.23" y="71.13" width="2.96" height="2.96" rx="0.33"/><rect class="cls-3" x="55.56" y="71.13" width="2.96" height="2.96" rx="0.33"/><rect class="cls-3" x="58.89" y="71.13" width="2.96" height="2.96" rx="0.33"/><rect class="cls-3" x="62.77" y="71.13" width="2.96" height="2.96" rx="0.33"/><rect class="cls-3" x="66.1" y="71.13" width="2.96" height="2.96" rx="0.33"/><rect class="cls-3" x="69.43" y="71.13" width="2.96" height="2.96" rx="0.33"/><rect class="cls-3" x="62.77" y="75.91" width="2.96" height="2.96" rx="0.33"/><rect class="cls-3" x="66.1" y="75.91" width="2.96" height="2.96" rx="0.33"/><rect class="cls-3" x="69.43" y="75.91" width="2.96" height="2.96" rx="0.33"/><rect class="cls-3" x="62.77" y="79.24" width="2.96" height="2.96" rx="0.33"/><rect class="cls-3" x="66.1" y="79.24" width="2.96" height="2.96" rx="0.33"/><rect class="cls-3" x="69.43" y="79.24" width="2.96" height="2.96" rx="0.33"/><rect class="cls-3" x="66.1" y="85.9" width="2.96" height="6.29" rx="0.33"/><rect class="cls-3" x="62.77" y="89.23" width="2.96" height="2.96" rx="0.33"/><rect class="cls-3" x="69.43" y="89.23" width="2.96" height="2.96" rx="0.33"/><rect class="cls-3" x="73.38" y="75.91" width="2.96" height="2.96" rx="0.33"/><rect class="cls-3" x="76.71" y="75.91" width="2.96" height="2.96" rx="0.33"/><rect class="cls-3" x="80.04" y="75.91" width="2.96" height="2.96" rx="0.33"/><rect class="cls-3" x="83.37" y="75.91" width="2.96" height="2.96" rx="0.33"/><rect class="cls-3" x="73.38" y="71.13" width="2.96" height="2.96" rx="0.33"/><rect class="cls-3" x="76.71" y="71.13" width="2.96" height="2.96" rx="0.33"/><rect class="cls-3" x="80.04" y="71.13" width="2.96" height="2.96" rx="0.33"/><rect class="cls-3" x="83.37" y="71.13" width="2.96" height="2.96" rx="0.33"/><rect class="cls-3" x="13.67" y="75.91" width="2.96" height="2.96" rx="0.33"/><rect class="cls-3" x="16.94" y="75.91" width="2.96" height="2.96" rx="0.33"/><rect class="cls-3" x="20.2" y="75.91" width="2.96" height="2.96" rx="0.33"/><rect class="cls-3" x="23.47" y="75.91" width="2.96" height="2.96" rx="0.33"/><rect class="cls-3" x="26.73" y="75.91" width="2.96" height="2.96" rx="0.33"/><rect class="cls-3" x="30" y="75.91" width="2.96" height="2.96" rx="0.33"/><rect class="cls-3" x="33.26" y="75.91" width="2.96" height="2.96" rx="0.33"/><rect class="cls-3" x="36.53" y="75.91" width="2.96" height="2.96" rx="0.33"/><rect class="cls-3" x="39.79" y="75.91" width="2.96" height="2.96" rx="0.33"/><rect class="cls-3" x="43.06" y="75.91" width="2.96" height="2.96" rx="0.33"/><rect class="cls-3" x="46.32" y="75.91" width="2.96" height="2.96" rx="0.33"/><rect class="cls-3" x="49.58" y="75.91" width="2.96" height="2.96" rx="0.33"/><rect class="cls-3" x="52.85" y="75.91" width="2.96" height="2.96" rx="0.33"/><rect class="cls-3" x="13.67" y="79.24" width="4.07" height="2.96" rx="0.33"/><rect class="cls-3" x="18.05" y="79.24" width="2.96" height="2.96" rx="0.33"/><rect class="cls-3" x="21.31" y="79.24" width="2.96" height="2.96" rx="0.33"/><rect class="cls-3" x="24.58" y="79.24" width="2.96" height="2.96" rx="0.33"/><rect class="cls-3" x="27.84" y="79.24" width="2.96" height="2.96" rx="0.33"/><rect class="cls-3" x="31.11" y="79.24" width="2.96" height="2.96" rx="0.33"/><rect class="cls-3" x="34.37" y="79.24" width="2.96" height="2.96" rx="0.33"/><rect class="cls-3" x="37.64" y="79.24" width="2.96" height="2.96" rx="0.33"/><rect class="cls-3" x="40.9" y="79.24" width="2.96" height="2.96" rx="0.33"/><rect class="cls-3" x="44.16" y="79.24" width="2.96" height="2.96" rx="0.33"/><rect class="cls-3" x="47.43" y="79.24" width="2.96" height="2.96" rx="0.33"/><rect class="cls-3" x="50.69" y="79.24" width="2.96" height="2.96" rx="0.33"/><rect class="cls-3" x="53.96" y="79.24" width="2.96" height="2.96" rx="0.33"/><rect class="cls-3" x="13.67" y="82.57" width="4.93" height="2.96" rx="0.33"/><rect class="cls-3" x="18.91" y="82.57" width="2.96" height="2.96" rx="0.33"/><rect class="cls-3" x="22.18" y="82.57" width="2.96" height="2.96" rx="0.33"/><rect class="cls-3" x="25.44" y="82.57" width="2.96" height="2.96" rx="0.33"/><rect class="cls-3" x="28.71" y="82.57" width="2.96" height="2.96" rx="0.33"/><rect class="cls-3" x="31.97" y="82.57" width="2.96" height="2.96" rx="0.33"/><rect class="cls-3" x="35.24" y="82.57" width="2.96" height="2.96" rx="0.33"/><rect class="cls-3" x="38.5" y="82.57" width="2.96" height="2.96" rx="0.33"/><rect class="cls-3" x="41.77" y="82.57" width="2.96" height="2.96" rx="0.33"/><rect class="cls-3" x="45.03" y="82.57" width="2.96" height="2.96" rx="0.33"/><rect class="cls-3" x="48.3" y="82.57" width="2.96" height="2.96" rx="0.33"/><rect class="cls-3" x="51.56" y="82.57" width="2.96" height="2.96" rx="0.33"/><rect class="cls-3" x="54.83" y="82.57" width="2.96" height="2.96" rx="0.33"/><rect class="cls-3" x="13.67" y="85.9" width="6.66" height="2.96" rx="0.33"/><rect class="cls-3" x="53.33" y="85.9" width="8.52" height="2.96" rx="0.33"/><rect class="cls-3" x="20.64" y="85.9" width="2.96" height="2.96" rx="0.33"/><rect class="cls-3" x="23.9" y="85.9" width="2.96" height="2.96" rx="0.33"/><rect class="cls-3" x="27.17" y="85.9" width="2.96" height="2.96" rx="0.33"/><rect class="cls-3" x="30.43" y="85.9" width="2.96" height="2.96" rx="0.33"/><rect class="cls-3" x="33.7" y="85.9" width="2.96" height="2.96" rx="0.33"/><rect class="cls-3" x="36.96" y="85.9" width="2.96" height="2.96" rx="0.33"/><rect class="cls-3" x="40.23" y="85.9" width="2.96" height="2.96" rx="0.33"/><rect class="cls-3" x="43.49" y="85.9" width="2.96" height="2.96" rx="0.33"/><rect class="cls-3" x="46.76" y="85.9" width="2.96" height="2.96" rx="0.33"/><rect class="cls-3" x="50.02" y="85.9" width="2.96" height="2.96" rx="0.33"/><rect class="cls-3" x="13.67" y="89.23" width="4.07" height="2.96" rx="0.33"/><rect class="cls-3" x="18.05" y="89.23" width="3.82" height="2.96" rx="0.33"/><rect class="cls-3" x="22.18" y="89.23" width="3.7" height="2.96" rx="0.33"/><rect class="cls-3" x="57.77" y="89.23" width="4.07" height="2.96" rx="0.33"/><rect class="cls-3" x="53.65" y="89.23" width="3.82" height="2.96" rx="0.33"/><rect class="cls-3" x="49.64" y="89.23" width="3.7" height="2.96" rx="0.33"/><rect class="cls-3" x="45.64" y="89.23" width="3.7" height="2.96" rx="0.33"/><rect class="cls-3" x="26.18" y="89.23" width="19.12" height="2.96" rx="0.33"/><rect class="cls-3" x="56.13" y="75.91" width="5.71" height="2.96" rx="0.33"/><path class="cls-3" d="M61.52,79.24h-4a.33.33,0,0,0-.33.33v2.31a.32.32,0,0,0,.33.32h.17a.42.42,0,0,1,.41.41V85.2a.32.32,0,0,0,.32.33h3.05a.33.33,0,0,0,.33-.33V79.57A.33.33,0,0,0,61.52,79.24Z"/><rect class="cls-3" x="73.38" y="79.24" width="2.96" height="2.96" rx="0.33"/><rect class="cls-3" x="76.71" y="79.24" width="2.96" height="2.96" rx="0.33"/><rect class="cls-3" x="80.04" y="79.24" width="2.96" height="2.96" rx="0.33"/><rect class="cls-3" x="83.37" y="79.24" width="2.96" height="6.29" rx="0.33"/><rect class="cls-3" x="73.38" y="82.57" width="2.96" height="2.96" rx="0.33"/><rect class="cls-3" x="76.71" y="82.57" width="2.96" height="2.96" rx="0.33"/><rect class="cls-3" x="80.04" y="82.57" width="2.96" height="2.96" rx="0.33"/><rect class="cls-3" x="73.38" y="85.9" width="2.96" height="2.96" rx="0.33"/><rect class="cls-3" x="76.71" y="85.9" width="2.96" height="2.96" rx="0.33"/><rect class="cls-3" x="80.04" y="85.9" width="2.96" height="2.96" rx="0.33"/><rect class="cls-3" x="83.37" y="85.9" width="2.96" height="6.29" rx="0.33"/><rect class="cls-3" x="73.38" y="89.23" width="6.29" height="2.96" rx="0.33"/><rect class="cls-3" x="80.04" y="89.23" width="2.96" height="2.96" rx="0.33"/><path class="cls-2" d="M86.76,94.85H13.24a.19.19,0,0,1-.18-.19.18.18,0,0,1,.18-.18H86.76a.18.18,0,0,1,.18.18A.19.19,0,0,1,86.76,94.85Z"/><path class="cls-2" d="M86.33,95.67H13.67a.19.19,0,0,1-.18-.19.18.18,0,0,1,.18-.18H86.33a.18.18,0,0,1,.18.18A.19.19,0,0,1,86.33,95.67Z"/><path class="cls-2" d="M86,96.49H14a.18.18,0,0,1-.18-.19.18.18,0,0,1,.18-.18H86a.18.18,0,0,1,.18.18A.18.18,0,0,1,86,96.49Z"/><path class="cls-2" d="M85.71,97.31H14.29a.19.19,0,1,1,0-.37H85.71a.19.19,0,1,1,0,.37Z"/><path class="cls-2" d="M85.28,98.13H14.72a.18.18,0,0,1-.18-.18.19.19,0,0,1,.18-.19H85.28a.19.19,0,0,1,.18.19A.18.18,0,0,1,85.28,98.13Z"/><path class="cls-2" d="M84.85,99H15.15a.19.19,0,0,1-.18-.19.18.18,0,0,1,.18-.18h69.7a.18.18,0,0,1,.18.18A.19.19,0,0,1,84.85,99Z"/><path class="cls-2" d="M84.11,99.78H15.89a.19.19,0,0,1-.18-.19.18.18,0,0,1,.18-.18H84.11a.18.18,0,0,1,.18.18A.19.19,0,0,1,84.11,99.78Z"/></svg>