<svg id="Layer_1" data-name="Layer 1" xmlns="http://www.w3.org/2000/svg" viewBox="0 0 100 100"><defs><style>.cls-1{fill:#41566b;}.cls-2{fill:#f6cf75;}.cls-3{fill:#22bbb4;}</style></defs><rect class="cls-1" x="82.39" y="6.99" width="1.74" height="3.48" transform="translate(17.36 60.36) rotate(-44.06)"/><rect class="cls-1" x="90.11" y="14.95" width="1.74" height="3.48" transform="translate(14.14 68.17) rotate(-44.22)"/><rect class="cls-1" x="85.29" y="3.99" width="1.74" height="3.48" transform="translate(20.38 61.68) rotate(-44.19)"/><rect class="cls-1" x="93.01" y="11.95" width="1.74" height="3.48" transform="translate(16.98 69.26) rotate(-44.15)"/><rect class="cls-1" x="88.19" y="1" width="1.74" height="3.48" transform="translate(23.23 62.79) rotate(-44.13)"/><rect class="cls-1" x="95.92" y="8.97" width="1.74" height="3.47" transform="translate(19.86 70.41) rotate(-44.13)"/><path class="cls-1" d="M41.25,53.69,65.56,29.37,81,13.92a3,3,0,0,1,.65-3.3l.54-.54L86.3,6,90.38,1.9l1-1a3,3,0,0,1,4.26,0l3.21,3.18a3,3,0,0,1,0,4.28l-1,1-4.09,4.09-4.1,4.09-.53.54a3,3,0,0,1-3.31.63L70.36,34.17,46,58.49a9.5,9.5,0,1,1-4.79-4.8Z"/><path class="cls-2" d="M30.65,69.09A9.5,9.5,0,0,0,46,58.49L70.36,34.17c7.36,8.92,8.83,20,.37,28.42A23.51,23.51,0,0,1,60.2,68.71a7.27,7.27,0,0,0-3.3,1.92,7.36,7.36,0,0,0-2.12,4.08c-.7,5.65-2.22,12.18-6.55,16.53C37.84,101.61,22.69,104.35,9,90.69S-1.87,61.9,8.51,51.52c4.37-4.37,10.94-5.9,16.64-6.58a7.44,7.44,0,0,0,4-2.09,7.84,7.84,0,0,0,2.08-3.94v0A24.87,24.87,0,0,1,37.16,29c8.46-8.47,19.49-7,28.4.37L41.25,53.69a9.5,9.5,0,0,0-10.6,15.4Z"/><rect class="cls-3" x="11.17" y="37.14" width="96.87" height="0.87" transform="translate(-9.12 53.15) rotate(-45)"/><rect class="cls-3" x="13.73" y="39.7" width="96.87" height="0.87" transform="translate(-10.17 55.71) rotate(-45)"/><rect class="cls-1" x="25.29" y="63.64" width="2.61" height="19.03" transform="translate(-43.94 40.23) rotate(-45)"/></svg>