<svg id="Layer_1" data-name="Layer 1" xmlns="http://www.w3.org/2000/svg" viewBox="0 0 100 100"><defs><style>.cls-1{fill:#252c3d;}.cls-2{fill:#6fbec4;}.cls-3{fill:#525864;}.cls-4{fill:#fff;}.cls-5{fill:#2c3d4c;}</style></defs><path class="cls-1" d="M62.62,27.39a6.28,6.28,0,1,1,12.55,0Z"/><rect class="cls-2" x="5.92" y="24.25" width="88.17" height="62.98" rx="6.3"/><rect class="cls-3" x="5.92" y="24.25" width="88.17" height="62.98" rx="6.3"/><rect class="cls-1" x="9.06" y="27.4" width="81.87" height="56.68" rx="3.15"/><rect class="cls-1" x="9.06" y="27.4" width="81.87" height="56.68" rx="3.15"/><path class="cls-2" d="M71.1,37.91a7,7,0,0,0-6.62-6.53l-16.06-.6c-3.46-.12-9.12-.12-12.59,0l-16,.6a7.06,7.06,0,0,0-6.63,6.53l-.6,11.54c-.19,3.46-.19,9.12,0,12.58l.6,11.54a7.06,7.06,0,0,0,6.63,6.53l16,.6c3.47.13,9.13.13,12.59,0l16.06-.6a7,7,0,0,0,6.62-6.53L71.71,62c.18-3.46.18-9.12,0-12.58Z"/><path class="cls-3" d="M81.49,30.55a6.28,6.28,0,0,0-6,4.53l12.08,3.53a6.4,6.4,0,0,0,.26-1.76A6.3,6.3,0,0,0,81.49,30.55Z"/><path class="cls-3" d="M75.19,36.85a6.3,6.3,0,0,0,12.34,1.76L75.45,35.08A6.06,6.06,0,0,0,75.19,36.85Z"/><rect class="cls-2" x="75.19" y="54.17" width="12.6" height="26.77"/><rect class="cls-3" x="75.19" y="44.72" width="5.38" height="3.15"/><rect class="cls-3" x="82.15" y="44.72" width="5.64" height="3.15"/><rect class="cls-3" x="75.19" y="49.44" width="5.38" height="3.15"/><rect class="cls-3" x="82.15" y="49.44" width="5.64" height="3.15"/><path class="cls-4" d="M16.58,42.71A1.58,1.58,0,0,1,15,41.13a7.79,7.79,0,0,1,7.79-7.78,1.57,1.57,0,1,1,0,3.14,4.65,4.65,0,0,0-4.64,4.64A1.58,1.58,0,0,1,16.58,42.71Z"/><path class="cls-1" d="M81.49,32.12A4.72,4.72,0,0,0,77,35.52L86,38.17a4.79,4.79,0,0,0,.19-1.32A4.72,4.72,0,0,0,81.49,32.12Z"/><path class="cls-5" d="M76.77,36.85A4.72,4.72,0,0,0,86,38.17L77,35.52A4.5,4.5,0,0,0,76.77,36.85Z"/><rect class="cls-3" x="75.19" y="54.17" width="12.6" height="26.77"/><path class="cls-1" d="M78.34,75.42a.79.79,0,0,1-.79-.79V60.46a.79.79,0,0,1,1.58,0V74.63A.79.79,0,0,1,78.34,75.42Z"/><path class="cls-1" d="M81.49,77.78A.78.78,0,0,1,80.7,77V58.1a.79.79,0,0,1,1.58,0V77A.79.79,0,0,1,81.49,77.78Z"/><path class="cls-1" d="M84.64,75.42a.79.79,0,0,1-.79-.79V60.46a.79.79,0,0,1,1.58,0V74.63A.79.79,0,0,1,84.64,75.42Z"/><polygon class="cls-1" points="31.11 87.23 22.8 87.23 18.51 99.83 22.8 99.83 31.11 87.23"/><polygon class="cls-1" points="68.89 87.23 77.2 87.23 81.49 99.83 77.2 99.83 68.89 87.23"/><path class="cls-1" d="M69,23.33,43.19,1.56a.79.79,0,1,1,1-1.2l24.87,21L81.71,12.9a.79.79,0,0,1,.88,1.31Z"/></svg>