<svg xmlns="http://www.w3.org/2000/svg" viewBox="0 0 100 100"><defs><style>.cls-1{isolation:isolate;}.cls-2{fill:#fec554;}.cls-3{fill:#ededed;}.cls-3,.cls-6{mix-blend-mode:multiply;}.cls-4{fill:#eea231;}.cls-5{fill:#4b4a4e;}.cls-7{fill:#d9d9d9;}</style></defs><g class="cls-1"><g id="Layer_1" data-name="Layer 1"><path class="cls-2" d="M65.23,42.63C59.29,62,80.53,60.24,81.4,76s-9.57,19.12-14.55,18.8-24.47.14-27.79-.07-7.74-7.75-7-16.1,5.18-10.39,7.6-20.22,2-15.48,2-15.48Z"/><path class="cls-2" d="M64,45.09c-1.36,7.68-7.26,28.82-6.7,50.56,0,2.06-5.3,1.82-5.43-.07s.45-25.23-3.37-25.43S46.5,93.63,46,95.51s-5,2.22-5.19-.06A433.36,433.36,0,0,0,33,44.71L62.9,41.56Z"/><path class="cls-3" d="M64,45.09c-1.36,7.68-7.26,28.82-6.7,50.56,0,2.06-5.3,1.82-5.43-.07s.45-25.23-3.37-25.43S46.5,93.63,46,95.51s-5,2.22-5.19-.06A433.36,433.36,0,0,0,33,44.71L62.9,41.56Z"/><path class="cls-4" d="M48.56,1.88,49.9.4A1.23,1.23,0,0,1,51.53.24l4.2,3.08a1.21,1.21,0,0,0,1.33.08l1.73-1a1.22,1.22,0,0,1,1.6.35l3,4.23a1.24,1.24,0,0,0,1.25.49l1.95-.41a1.22,1.22,0,0,1,1.42.82l1.58,5a1.22,1.22,0,0,0,1,.84l2,.21a1.23,1.23,0,0,1,1.09,1.23l0,5.21a1.23,1.23,0,0,0,.72,1.12l1.83.82a1.22,1.22,0,0,1,.66,1.49l-1.64,4.95A1.22,1.22,0,0,0,75.62,30l1.48,1.34A1.22,1.22,0,0,1,77.26,33l-3.08,4.2a1.21,1.21,0,0,0-.08,1.33l1,1.73a1.24,1.24,0,0,1-.35,1.61l-4.23,3A1.22,1.22,0,0,0,70,46.13l.41,1.95a1.23,1.23,0,0,1-.83,1.42l-5,1.58a1.24,1.24,0,0,0-.85,1l-.21,2a1.22,1.22,0,0,1-1.22,1.09l-5.21,0a1.22,1.22,0,0,0-1.13.72l-.81,1.82a1.23,1.23,0,0,1-1.5.66l-4.95-1.64a1.23,1.23,0,0,0-1.29.34l-1.34,1.48a1.22,1.22,0,0,1-1.63.17l-4.2-3.09A1.23,1.23,0,0,0,39,55.56l-1.73,1a1.22,1.22,0,0,1-1.6-.35l-3-4.23a1.24,1.24,0,0,0-1.25-.48l-1.95.41A1.22,1.22,0,0,1,28,51.07l-1.58-5a1.22,1.22,0,0,0-1-.84l-2-.22a1.22,1.22,0,0,1-1.09-1.22l0-5.21a1.2,1.2,0,0,0-.73-1.12l-1.82-.82a1.24,1.24,0,0,1-.66-1.5l1.64-4.95a1.23,1.23,0,0,0-.34-1.29L19,27.6A1.22,1.22,0,0,1,18.78,26l3.09-4.2a1.19,1.19,0,0,0,.07-1.33l-1-1.73a1.22,1.22,0,0,1,.35-1.6l4.23-3A1.23,1.23,0,0,0,26,12.82l-.41-2a1.23,1.23,0,0,1,.83-1.41l5-1.59a1.24,1.24,0,0,0,.85-1l.21-2a1.23,1.23,0,0,1,1.22-1.09l5.21,0A1.23,1.23,0,0,0,40,3.07l.81-1.82a1.22,1.22,0,0,1,1.5-.66l5,1.63A1.23,1.23,0,0,0,48.56,1.88Z"/><path class="cls-2" d="M54.14,18.25c.39-1.3,6.77-3.74,7.92-2.64.67.64-.29,5.8-3.45,7.55S54.14,18.25,54.14,18.25Z"/><path class="cls-3" d="M54.14,18.25c.39-1.3,6.77-3.74,7.92-2.64.67.64-.29,5.8-3.45,7.55S54.14,18.25,54.14,18.25Z"/><path class="cls-2" d="M62.06,15.61c-1.15-1.1-7.53,1.34-7.92,2.64a13.91,13.91,0,0,0,1.13,3.27l.62-.06,1.3-1.09C58,18.88,59.52,16,62.06,15.61Z"/><path class="cls-2" d="M40.5,18.25c-.39-1.3-6.77-3.74-7.92-2.64-.67.64.29,5.8,3.45,7.55S40.5,18.25,40.5,18.25Z"/><path class="cls-3" d="M40.5,18.25c-.39-1.3-6.77-3.74-7.92-2.64-.67.64.29,5.8,3.45,7.55S40.5,18.25,40.5,18.25Z"/><path class="cls-2" d="M32.58,15.61c1.15-1.1,7.53,1.34,7.92,2.64a13.91,13.91,0,0,1-1.13,3.27l-.62-.06-1.3-1.09C36.65,18.88,35.12,16,32.58,15.61Z"/><path class="cls-2" d="M47.13,16.48c9.15,0,11.46,4.39,11.42,7.58,0,4-1,12-1,16.05,0,3.19-1.82,7.35-10.44,7.35S36.65,43.3,36.69,40.11c.05-4-.93-12-1-16C35.67,20.87,38,16.48,47.13,16.48Z"/><path class="cls-3" d="M47.13,16.48c9.15,0,11.46,4.39,11.42,7.58,0,4-1,12-1,16.05,0,3.19-1.82,7.35-10.44,7.35S36.65,43.3,36.69,40.11c.05-4-.93-12-1-16C35.67,20.87,38,16.48,47.13,16.48Z"/><path class="cls-2" d="M43.82,36.07s.18-8.3,0-12.26-2.46-6.54-4.46-5.7a6.62,6.62,0,0,0-3.65,5.95c0,4,1,12,1,16.05a6.41,6.41,0,0,0,4,6.21c5.4.56,6.42-6.43,6.42-8.5Z"/><path class="cls-2" d="M54.81,18.06c-2-.67-4.14,1.89-4.32,5.75s0,12.26,0,12.26l-3.31,1.75c0,2.06,1,9,6.36,8.5a6.41,6.41,0,0,0,4-6.21c0-4,.93-12,1-16A6.62,6.62,0,0,0,54.81,18.06Z"/><path class="cls-5" d="M47.13,38.92c-.43,0-3.37-2.21-3.36-2.88S44.25,35,47.13,35s3.35.4,3.36,1.08S47.56,38.89,47.13,38.92Z"/><g class="cls-6"><path class="cls-7" d="M52.81,38.71a.26.26,0,0,1-.26.26.26.26,0,0,1,0-.52A.26.26,0,0,1,52.81,38.71Z"/><path class="cls-7" d="M50.29,41.55a.27.27,0,1,1-.53,0,.27.27,0,0,1,.53,0Z"/><path class="cls-7" d="M50.75,39.56a.27.27,0,0,1-.26.27.27.27,0,0,1,0-.53A.26.26,0,0,1,50.75,39.56Z"/><circle class="cls-7" cx="52.03" cy="43.15" r="0.26"/><path class="cls-7" d="M54.28,42.62a.27.27,0,0,1-.53,0,.27.27,0,0,1,.53,0Z"/><circle class="cls-7" cx="54.54" cy="40.51" r="0.26"/><path class="cls-7" d="M52.65,40.92a.26.26,0,0,1-.26.26.26.26,0,0,1-.26-.26.25.25,0,0,1,.26-.26A.26.26,0,0,1,52.65,40.92Z"/></g><g class="cls-6"><path class="cls-7" d="M42.45,38.71a.26.26,0,0,1-.26.26.26.26,0,0,1,0-.52A.26.26,0,0,1,42.45,38.71Z"/><path class="cls-7" d="M39.92,41.55a.27.27,0,0,1-.26.27.27.27,0,0,1,0-.53A.26.26,0,0,1,39.92,41.55Z"/><path class="cls-7" d="M40.39,39.56a.27.27,0,1,1-.53,0,.27.27,0,0,1,.53,0Z"/><path class="cls-7" d="M41.93,43.15a.27.27,0,1,1-.27-.27A.27.27,0,0,1,41.93,43.15Z"/><path class="cls-7" d="M43.91,42.62a.26.26,0,0,1-.26.26.25.25,0,0,1-.26-.26.26.26,0,0,1,.26-.26A.26.26,0,0,1,43.91,42.62Z"/><path class="cls-7" d="M44.43,40.51a.26.26,0,0,1-.26.27.27.27,0,0,1,0-.53A.26.26,0,0,1,44.43,40.51Z"/><path class="cls-7" d="M42.29,40.92a.27.27,0,0,1-.53,0,.27.27,0,0,1,.53,0Z"/></g><circle class="cls-5" cx="52.25" cy="29.48" r="1.22"/><circle class="cls-5" cx="41.92" cy="29.48" r="1.22"/><path class="cls-2" d="M81.4,76a14.42,14.42,0,0,0-2.63-7.7C75.08,66.18,68.28,66.86,64,70.51c-5.56,4.71-6,19.51,1.89,24.16l1.42.1C72.43,94.86,82.25,91.2,81.4,76Z"/><path class="cls-3" d="M81.4,76a14.42,14.42,0,0,0-2.63-7.7C75.08,66.18,68.28,66.86,64,70.51c-5.56,4.71-6,19.51,1.89,24.16l1.42.1C72.43,94.86,82.25,91.2,81.4,76Z"/><ellipse class="cls-2" cx="61.45" cy="92.2" rx="4.5" ry="3.51" transform="translate(-4.19 2.94) rotate(-2.65)"/><ellipse class="cls-3" cx="61.45" cy="92.2" rx="4.5" ry="3.51" transform="translate(-4.19 2.94) rotate(-2.65)"/><ellipse class="cls-2" cx="37.08" cy="91.3" rx="3.51" ry="4.5" transform="translate(-54.46 127.77) rotate(-89.62)"/><ellipse class="cls-3" cx="37.08" cy="91.3" rx="3.51" ry="4.5" transform="translate(-54.46 127.77) rotate(-89.62)"/><ellipse class="cls-2" cx="54.79" cy="93.69" rx="3.51" ry="4.5" transform="translate(-39.55 147.36) rotate(-89.31)"/><ellipse class="cls-2" cx="43.53" cy="93.56" rx="3.51" ry="4.5" transform="translate(-50.55 135.96) rotate(-89.31)"/><path class="cls-2" d="M79.12,87.87c-2.74,4.44-8.86,10.9-21.55,11.95s-21.38-2.87-23.35-4,2-.17,6.23.55S55.06,98.1,64,95.4C77,91.45,79.58,87.13,79.12,87.87Z"/><path class="cls-4" d="M35.3,95.52c.15-.73-2.67-.8-4.06-6.8-.37-1.57-5.66,4.52-4.5,5.57C28.74,96.1,35,97.29,35.3,95.52Z"/><ellipse class="cls-3" cx="54.79" cy="93.69" rx="3.51" ry="4.5" transform="translate(-39.55 147.36) rotate(-89.31)"/><ellipse class="cls-3" cx="43.53" cy="93.56" rx="3.51" ry="4.5" transform="translate(-50.55 135.96) rotate(-89.31)"/></g></g></svg>