<svg id="Layer_1" data-name="Layer 1" xmlns="http://www.w3.org/2000/svg" viewBox="0 0 100 100"><defs><style>.cls-1{fill:#c68834;}.cls-2{fill:#eab542;}.cls-3{fill:#31545c;}.cls-4{fill:#566970;}.cls-5{fill:#132f35;}.cls-6{fill:#f5ddaf;}.cls-7{fill:#f2cf8c;}</style></defs><path class="cls-1" d="M50,41.1V77.28h9s-7.6-12.57-7.6-34.92Z"/><path class="cls-2" d="M50,41.1V77.28H41s7.6-12.57,7.6-34.92Z"/><rect class="cls-3" x="27.94" y="74.74" width="44.17" height="22.82"/><rect class="cls-4" x="30.66" y="74.74" width="12.25" height="21.66"/><rect class="cls-5" x="56.73" y="74.74" width="15.39" height="22.82"/><path class="cls-3" d="M73.09,100H27a2.45,2.45,0,0,1-2.44-2.45h0A2.44,2.44,0,0,1,27,95.11H73.09a2.45,2.45,0,0,1,2.45,2.44h0A2.45,2.45,0,0,1,73.09,100Z"/><path class="cls-4" d="M42.21,97.55c0-1.35.24-2.44.53-2.44H30.51c-1,0-1.83,1.09-1.83,2.44S29.5,100,30.51,100H42.74C42.45,100,42.21,98.9,42.21,97.55Z"/><path class="cls-5" d="M73.09,95.11H56.76c.39,0,.71,1.09.71,2.44s-.32,2.45-.71,2.45H73.09a2.45,2.45,0,1,0,0-4.89Z"/><path class="cls-3" d="M73.09,77.92H27a2.45,2.45,0,0,1-2.44-2.45h0A2.45,2.45,0,0,1,27,73H73.09a2.45,2.45,0,0,1,2.45,2.45h0A2.45,2.45,0,0,1,73.09,77.92Z"/><path class="cls-4" d="M42.21,75.47c0-1.35.24-2.45.53-2.45H30.51c-1,0-1.83,1.1-1.83,2.45s.82,2.45,1.83,2.45H42.74C42.45,77.92,42.21,76.82,42.21,75.47Z"/><path class="cls-5" d="M73.09,73H56.76c.39,0,.71,1.1.71,2.45s-.32,2.45-.71,2.45H73.09a2.45,2.45,0,0,0,0-4.9Z"/><rect class="cls-2" x="33.93" y="79.61" width="32.2" height="13.08" rx="2.17"/><path class="cls-1" d="M63.32,79.61H56.73V92.68h6.59a2.68,2.68,0,0,0,2.81-2.53v-8A2.68,2.68,0,0,0,63.32,79.61Z"/><path class="cls-1" d="M63.32,79.61H56.73V92.68h6.59a2.68,2.68,0,0,0,2.81-2.53v-8A2.68,2.68,0,0,0,63.32,79.61Z"/><rect class="cls-6" x="36.78" y="79.61" width="6.08" height="13.08"/><path class="cls-3" d="M59.48,83.26H40.57a1,1,0,0,1,0-2H59.48a1,1,0,1,1,0,2Z"/><path class="cls-4" d="M59.48,87H40.57a1,1,0,0,1,0-2H59.48a1,1,0,1,1,0,2Z"/><path class="cls-3" d="M59.48,90.82H40.57a1,1,0,0,1,0-1.95H59.48a1,1,0,1,1,0,1.95Z"/><path class="cls-5" d="M59.48,81.31H56.73v2h2.75a1,1,0,1,0,0-2Z"/><path class="cls-3" d="M59.48,87H40.57a1,1,0,0,1,0-2H59.48a1,1,0,1,1,0,2Z"/><path class="cls-4" d="M42.87,81.31h-2.3a1,1,0,0,0,0,2h2.3Z"/><path class="cls-4" d="M42.87,88.87h-2.3a1,1,0,0,0,0,1.95h2.3Z"/><path class="cls-4" d="M42.87,85.09h-2.3a1,1,0,0,0,0,2h2.3Z"/><path class="cls-5" d="M59.48,85.09H56.73v2h2.75a1,1,0,1,0,0-2Z"/><path class="cls-5" d="M59.48,88.87H56.73v1.95h2.75a1,1,0,1,0,0-1.95Z"/><path class="cls-2" d="M83.64,26.75,64.23,40.86l7.46,22.92a1.44,1.44,0,0,1-2.21,1.61L50,51.24,30.54,65.4a1.45,1.45,0,0,1-2.22-1.62l7.46-22.92L16.42,26.75a1.44,1.44,0,0,1,.85-2.6H41.19L48.66,1.34a1.44,1.44,0,0,1,2.74,0l7.42,22.8h24A1.44,1.44,0,0,1,83.64,26.75Z"/><path class="cls-7" d="M50,.35a1.41,1.41,0,0,0-1.37,1L41.19,24.15H17.27a1.44,1.44,0,0,0-.85,2.6L35.78,40.86,28.32,63.78a1.45,1.45,0,0,0,2.22,1.62L50,51.25Z"/><path class="cls-1" d="M51.4,1.35a1.4,1.4,0,0,0-1.4-1L50,36l8.79-11.87Z"/><path class="cls-1" d="M64.23,40.86,83.64,26.75a1.41,1.41,0,0,0,.51-1.63L50,36Z"/><path class="cls-1" d="M71.16,65.4,50,36V51.24L69.48,65.39A1.41,1.41,0,0,0,71.16,65.4Z"/><path class="cls-2" d="M35.78,40.86,28.32,63.78a1.42,1.42,0,0,0,.49,1.59L50,36Z"/><path class="cls-2" d="M15.9,25.14,50,36,41.19,24.15H17.27A1.41,1.41,0,0,0,15.9,25.14Z"/></svg>