<svg id="Layer_1" data-name="Layer 1" xmlns="http://www.w3.org/2000/svg" viewBox="0 0 100 100"><defs><style>.cls-1{fill:#c7cacc;}.cls-2{fill:#9da3a8;}.cls-3{fill:#31545c;}.cls-4{fill:#132f35;}.cls-5{fill:#e0e0e1;}.cls-6{fill:#566970;}</style></defs><path class="cls-1" d="M50,49.9v44l-18-6s13.35-2.63,13.35-16A25.87,25.87,0,0,0,41,57.71Z"/><path class="cls-2" d="M50,49.9v44l18-6s-13.35-2.63-13.35-16A25.87,25.87,0,0,1,59,57.71Z"/><path class="cls-3" d="M50,76.21H44.64a.83.83,0,0,0-.79.57C41.21,85.1,32,87,31.89,87.05a.82.82,0,0,0-.1,1.59l18,6a.82.82,0,0,0,.26,0Z"/><path class="cls-4" d="M50,76.21h5.37a.81.81,0,0,1,.78.57C58.8,85.1,68,87,68.12,87.05a.84.84,0,0,1,.66.76.83.83,0,0,1-.56.83l-18,6a.75.75,0,0,1-.26,0Z"/><path class="cls-1" d="M50,49.9H6l6-18s2.63,13.35,16,13.35a25.87,25.87,0,0,0,14.18-4.37Z"/><path class="cls-2" d="M50,49.9H6l6,17.95S14.67,54.5,28,54.5a25.87,25.87,0,0,1,14.18,4.37Z"/><path class="cls-3" d="M23.69,49.9V44.53a.83.83,0,0,0-.57-.79c-8.32-2.64-10.25-11.86-10.27-12a.84.84,0,0,0-.76-.66.83.83,0,0,0-.83.56l-6,18a.84.84,0,0,0,0,.27Z"/><path class="cls-4" d="M23.69,49.9v5.36a.83.83,0,0,1-.57.79C14.8,58.69,12.87,67.92,12.85,68a.82.82,0,0,1-.76.66.83.83,0,0,1-.83-.56l-6-18a.82.82,0,0,1,0-.26Z"/><path class="cls-1" d="M50,49.9H94l-6-18S85.34,45.29,72,45.29a25.87,25.87,0,0,1-14.18-4.37Z"/><path class="cls-2" d="M50,49.9H94L88,67.85S85.34,54.5,72,54.5a25.87,25.87,0,0,0-14.18,4.37Z"/><path class="cls-3" d="M76.32,49.9V44.53a.83.83,0,0,1,.57-.79c8.31-2.64,10.25-11.86,10.27-12a.82.82,0,0,1,1.58-.1l6,18a.86.86,0,0,1,0,.27Z"/><path class="cls-4" d="M76.32,49.9v5.36a.83.83,0,0,0,.57.79c8.31,2.64,10.25,11.87,10.27,12a.81.81,0,0,0,.75.66.82.82,0,0,0,.83-.56l6-18a.85.85,0,0,0,0-.26Z"/><path class="cls-1" d="M50,62.64A12.75,12.75,0,1,1,62.75,49.9,12.76,12.76,0,0,1,50,62.64Z"/><path class="cls-5" d="M50,60.34A10.45,10.45,0,1,1,60.45,49.9,10.45,10.45,0,0,1,50,60.34Z"/><path class="cls-3" d="M50,58.48a8.59,8.59,0,1,1,8.59-8.58A8.6,8.6,0,0,1,50,58.48Z"/><path class="cls-4" d="M50,41.31c2,0,3.63,3.85,3.63,8.59S52,58.48,50,58.48a8.59,8.59,0,1,0,0-17.17Z"/><path class="cls-6" d="M46.91,49.9c0-4,1.39-7.21,3.09-7.21a7.21,7.21,0,1,0,0,14.42C48.3,57.11,46.91,53.87,46.91,49.9Z"/><path class="cls-3" d="M50,98A48.11,48.11,0,1,1,98.11,49.9,48.16,48.16,0,0,1,50,98Zm0-87.71A39.61,39.61,0,1,0,89.61,49.9,39.65,39.65,0,0,0,50,10.29Z"/><path class="cls-6" d="M50,1.79A48.11,48.11,0,1,0,98.11,49.9,48.16,48.16,0,0,0,50,1.79Zm0,92.33A44.23,44.23,0,1,1,94.23,49.9,44.27,44.27,0,0,1,50,94.12Z"/><path class="cls-3" d="M90.39,21.84a1.09,1.09,0,0,0-1.53-.27l-7,4.84a1.1,1.1,0,0,0-.46.71,1.13,1.13,0,0,0,.18.82,38.38,38.38,0,0,1,0,43.91,1.14,1.14,0,0,0-.18.82,1.08,1.08,0,0,0,.46.71l7,4.85A1.11,1.11,0,0,0,90.39,78a49.07,49.07,0,0,0,0-56.11Z"/><path class="cls-4" d="M90.39,21.84a1.09,1.09,0,0,0-1.53-.27l-2,1.41a45.74,45.74,0,0,1,0,53.84l2,1.41A1.11,1.11,0,0,0,90.39,78a49.07,49.07,0,0,0,0-56.11Z"/><path class="cls-6" d="M91.51,49.9A44.49,44.49,0,0,0,83.92,25l-2,1.41a1.1,1.1,0,0,0-.46.71,1.13,1.13,0,0,0,.18.82,38.38,38.38,0,0,1,0,43.91,1.14,1.14,0,0,0-.18.82,1.08,1.08,0,0,0,.46.71l2,1.41A44.48,44.48,0,0,0,91.51,49.9Z"/><path class="cls-3" d="M9.61,78a1.11,1.11,0,0,0,1.53.28l7-4.85a1.08,1.08,0,0,0,.46-.71,1.14,1.14,0,0,0-.18-.82,38.38,38.38,0,0,1,0-43.91,1.14,1.14,0,0,0,.18-.82,1.1,1.1,0,0,0-.46-.71l-7-4.84a1,1,0,0,0-.63-.2,1.1,1.1,0,0,0-.9.47A49.07,49.07,0,0,0,9.61,78Z"/><path class="cls-6" d="M9.61,21.84a1.09,1.09,0,0,1,1.53-.27l2,1.41a45.74,45.74,0,0,0,0,53.84l-2,1.41A1.11,1.11,0,0,1,9.61,78a49.07,49.07,0,0,1,0-56.11Z"/><path class="cls-4" d="M8.49,49.9A44.49,44.49,0,0,1,16.08,25l2,1.41a1.1,1.1,0,0,1,.46.71,1.13,1.13,0,0,1-.18.82,38.38,38.38,0,0,0,0,43.91,1.14,1.14,0,0,1,.18.82,1.08,1.08,0,0,1-.46.71l-2,1.41A44.48,44.48,0,0,1,8.49,49.9Z"/></svg>